<mxfile host="app.diagrams.net" modified="2023-02-22T22:44:28.628Z" agent="5.0 (Windows NT 10.0; Win64; x64) AppleWebKit/537.36 (KHTML, like Gecko) Chrome/109.0.0.0 Safari/537.36" etag="Zda63P3M3-vwLL0dNrGe" version="16.4.3" type="github">
  <diagram id="C5RBs43oDa-KdzZeNtuy" name="Page-1">
    <mxGraphModel dx="677" dy="363" grid="1" gridSize="10" guides="1" tooltips="1" connect="1" arrows="1" fold="1" page="1" pageScale="1" pageWidth="827" pageHeight="1169" math="0" shadow="0">
      <root>
        <mxCell id="WIyWlLk6GJQsqaUBKTNV-0" />
        <mxCell id="WIyWlLk6GJQsqaUBKTNV-1" parent="WIyWlLk6GJQsqaUBKTNV-0" />
        <mxCell id="OwJwtx9q1fNAAsH3XogG-12" value="" style="edgeStyle=orthogonalEdgeStyle;rounded=0;sketch=0;orthogonalLoop=1;jettySize=auto;html=1;labelBorderColor=none;" edge="1" parent="WIyWlLk6GJQsqaUBKTNV-1" source="OwJwtx9q1fNAAsH3XogG-4" target="OwJwtx9q1fNAAsH3XogG-11">
          <mxGeometry relative="1" as="geometry" />
        </mxCell>
        <mxCell id="OwJwtx9q1fNAAsH3XogG-15" value="" style="edgeStyle=orthogonalEdgeStyle;rounded=0;sketch=0;orthogonalLoop=1;jettySize=auto;html=1;labelBorderColor=none;" edge="1" parent="WIyWlLk6GJQsqaUBKTNV-1" source="OwJwtx9q1fNAAsH3XogG-4" target="OwJwtx9q1fNAAsH3XogG-14">
          <mxGeometry relative="1" as="geometry" />
        </mxCell>
        <mxCell id="OwJwtx9q1fNAAsH3XogG-4" value="&lt;span&gt;Is it possible to find a list of the invited speakers?&lt;/span&gt;" style="rounded=0;whiteSpace=wrap;html=1;" vertex="1" parent="WIyWlLk6GJQsqaUBKTNV-1">
          <mxGeometry x="160" y="160" width="120" height="60" as="geometry" />
        </mxCell>
        <mxCell id="OwJwtx9q1fNAAsH3XogG-9" style="edgeStyle=orthogonalEdgeStyle;rounded=0;sketch=0;orthogonalLoop=1;jettySize=auto;html=1;entryX=0.5;entryY=0;entryDx=0;entryDy=0;labelBorderColor=none;" edge="1" parent="WIyWlLk6GJQsqaUBKTNV-1" source="OwJwtx9q1fNAAsH3XogG-6" target="OwJwtx9q1fNAAsH3XogG-7">
          <mxGeometry relative="1" as="geometry" />
        </mxCell>
        <mxCell id="OwJwtx9q1fNAAsH3XogG-24" style="edgeStyle=orthogonalEdgeStyle;rounded=0;sketch=0;orthogonalLoop=1;jettySize=auto;html=1;entryX=0.5;entryY=0;entryDx=0;entryDy=0;labelBorderColor=none;fontSize=8;" edge="1" parent="WIyWlLk6GJQsqaUBKTNV-1" source="OwJwtx9q1fNAAsH3XogG-6" target="OwJwtx9q1fNAAsH3XogG-4">
          <mxGeometry relative="1" as="geometry" />
        </mxCell>
        <mxCell id="OwJwtx9q1fNAAsH3XogG-6" value="&lt;span&gt;Does the conference has a functional website for that year?&lt;/span&gt;" style="rounded=0;whiteSpace=wrap;html=1;" vertex="1" parent="WIyWlLk6GJQsqaUBKTNV-1">
          <mxGeometry x="300" y="70" width="120" height="60" as="geometry" />
        </mxCell>
        <mxCell id="OwJwtx9q1fNAAsH3XogG-7" value="Write an email to the someone in committee" style="rounded=0;whiteSpace=wrap;html=1;" vertex="1" parent="WIyWlLk6GJQsqaUBKTNV-1">
          <mxGeometry x="440" y="160" width="120" height="60" as="geometry" />
        </mxCell>
        <mxCell id="OwJwtx9q1fNAAsH3XogG-11" value="Save the information about the speakers and year in a .csv file" style="rounded=0;whiteSpace=wrap;html=1;" vertex="1" parent="WIyWlLk6GJQsqaUBKTNV-1">
          <mxGeometry x="60" y="278" width="120" height="60" as="geometry" />
        </mxCell>
        <mxCell id="OwJwtx9q1fNAAsH3XogG-17" style="edgeStyle=orthogonalEdgeStyle;rounded=0;sketch=0;orthogonalLoop=1;jettySize=auto;html=1;entryX=0.5;entryY=1;entryDx=0;entryDy=0;labelBorderColor=none;" edge="1" parent="WIyWlLk6GJQsqaUBKTNV-1" source="OwJwtx9q1fNAAsH3XogG-14" target="OwJwtx9q1fNAAsH3XogG-7">
          <mxGeometry relative="1" as="geometry" />
        </mxCell>
        <mxCell id="OwJwtx9q1fNAAsH3XogG-22" style="edgeStyle=orthogonalEdgeStyle;rounded=0;sketch=0;orthogonalLoop=1;jettySize=auto;html=1;exitX=0.5;exitY=1;exitDx=0;exitDy=0;entryX=0.5;entryY=1;entryDx=0;entryDy=0;labelBorderColor=none;fontSize=8;" edge="1" parent="WIyWlLk6GJQsqaUBKTNV-1" source="OwJwtx9q1fNAAsH3XogG-14" target="OwJwtx9q1fNAAsH3XogG-11">
          <mxGeometry relative="1" as="geometry" />
        </mxCell>
        <mxCell id="OwJwtx9q1fNAAsH3XogG-14" value="&lt;span&gt;Is it possible to collect the information from the front matter of the proceedings or other sources?&lt;/span&gt;" style="rounded=0;whiteSpace=wrap;html=1;" vertex="1" parent="WIyWlLk6GJQsqaUBKTNV-1">
          <mxGeometry x="235" y="278" width="170" height="80" as="geometry" />
        </mxCell>
        <mxCell id="OwJwtx9q1fNAAsH3XogG-18" value="&lt;font style=&quot;font-size: 8px&quot;&gt;Yes&lt;/font&gt;" style="text;html=1;strokeColor=none;fillColor=none;align=center;verticalAlign=middle;whiteSpace=wrap;rounded=0;" vertex="1" parent="WIyWlLk6GJQsqaUBKTNV-1">
          <mxGeometry x="235" y="83" width="50" height="20" as="geometry" />
        </mxCell>
        <mxCell id="OwJwtx9q1fNAAsH3XogG-21" value="&lt;span style=&quot;color: rgb(0, 0, 0); font-family: helvetica; font-size: 8px; font-style: normal; font-weight: 400; letter-spacing: normal; text-indent: 0px; text-transform: none; word-spacing: 0px; background-color: rgb(248, 249, 250); display: inline; float: none;&quot;&gt;Yes&lt;/span&gt;" style="text;whiteSpace=wrap;html=1;fontSize=8;align=center;" vertex="1" parent="WIyWlLk6GJQsqaUBKTNV-1">
          <mxGeometry x="152" y="232" width="40" height="30" as="geometry" />
        </mxCell>
        <mxCell id="OwJwtx9q1fNAAsH3XogG-25" value="&lt;span style=&quot;color: rgb(0, 0, 0); font-family: helvetica; font-size: 8px; font-style: normal; font-weight: 400; letter-spacing: normal; text-indent: 0px; text-transform: none; word-spacing: 0px; background-color: rgb(248, 249, 250); display: inline; float: none;&quot;&gt;Yes&lt;/span&gt;" style="text;whiteSpace=wrap;html=1;fontSize=8;align=center;" vertex="1" parent="WIyWlLk6GJQsqaUBKTNV-1">
          <mxGeometry x="200" y="358" width="40" height="30" as="geometry" />
        </mxCell>
        <mxCell id="OwJwtx9q1fNAAsH3XogG-26" value="&lt;span style=&quot;color: rgb(0 , 0 , 0) ; font-family: &amp;#34;helvetica&amp;#34; ; font-size: 8px ; font-style: normal ; font-weight: 400 ; letter-spacing: normal ; text-indent: 0px ; text-transform: none ; word-spacing: 0px ; background-color: rgb(248 , 249 , 250) ; display: inline ; float: none&quot;&gt;No&lt;/span&gt;" style="text;whiteSpace=wrap;html=1;fontSize=8;align=center;" vertex="1" parent="WIyWlLk6GJQsqaUBKTNV-1">
          <mxGeometry x="250" y="232" width="40" height="30" as="geometry" />
        </mxCell>
        <mxCell id="OwJwtx9q1fNAAsH3XogG-27" value="&lt;span style=&quot;color: rgb(0 , 0 , 0) ; font-family: &amp;#34;helvetica&amp;#34; ; font-size: 8px ; font-style: normal ; font-weight: 400 ; letter-spacing: normal ; text-indent: 0px ; text-transform: none ; word-spacing: 0px ; background-color: rgb(248 , 249 , 250) ; display: inline ; float: none&quot;&gt;No&lt;br&gt;&lt;/span&gt;" style="text;whiteSpace=wrap;html=1;fontSize=8;align=center;" vertex="1" parent="WIyWlLk6GJQsqaUBKTNV-1">
          <mxGeometry x="437" y="83" width="40" height="30" as="geometry" />
        </mxCell>
        <mxCell id="OwJwtx9q1fNAAsH3XogG-28" value="&lt;span style=&quot;color: rgb(0 , 0 , 0) ; font-family: &amp;#34;helvetica&amp;#34; ; font-size: 8px ; font-style: normal ; font-weight: 400 ; letter-spacing: normal ; text-indent: 0px ; text-transform: none ; word-spacing: 0px ; background-color: rgb(248 , 249 , 250) ; display: inline ; float: none&quot;&gt;No&lt;br&gt;&lt;/span&gt;" style="text;whiteSpace=wrap;html=1;fontSize=8;align=center;" vertex="1" parent="WIyWlLk6GJQsqaUBKTNV-1">
          <mxGeometry x="432" y="300" width="40" height="30" as="geometry" />
        </mxCell>
      </root>
    </mxGraphModel>
  </diagram>
</mxfile>
